<?xml version="1.0" encoding="utf-8"?>
<!-- Generator: Adobe Illustrator 27.7.0, SVG Export Plug-In . SVG Version: 6.00 Build 0)  -->
<svg version="1.1" id="Capa_1" xmlns="http://www.w3.org/2000/svg" xmlns:xlink="http://www.w3.org/1999/xlink" x="0px" y="0px"
	 viewBox="0 0 1080 810" style="enable-background:new 0 0 1080 810;" xml:space="preserve">
<style type="text/css">
	.st0{fill:#1D1D1B;}
</style>
<g>
	<path class="st0" d="M286.21,632.57l159.85-282.25l86.97,282.25h-36.16l-18.17-68.43H360.2l-36.9,68.43H286.21z M374.67,536.14
		h96.8l-32.64-108.3L374.67,536.14z"/>
	<path class="st0" d="M539.16,632.57l83.82-282.25l77.15,223.46l130.18-223.46l12.98,282.25h-32.27l-4.27-188.04L690.67,643.14
		l-66.57-198.98l-51.18,188.41H539.16z"/>
	<path class="st0" d="M1034.85,602.53l-4.27,30.04H885.57l35.61-271.49H1061l-3.71,29.49H949.36l-10.57,81.04h107.74l-3.71,29.11
		H934.9l-13.72,101.81H1034.85z"/>
	<polygon class="st0" points="257.68,361.08 230.79,562.66 68.9,350.33 37.22,596.37 64.82,632.57 91.71,432.85 252.86,643.14 
		285.22,397.02 	"/>
</g>
<g>
	<path class="st0" d="M517.5,26.96c40.89,0,73.63,12.03,98.22,36.07c24.58,24.05,36.88,56.1,36.88,96.15
		c0,21.51-4.01,41.82-12.05,60.92c-8.03,19.1-19.46,35.76-34.29,49.98c-13.96,13.35-30.33,23.64-49.11,30.88
		s-38.73,10.85-59.86,10.85c-39.29,0-71.07-12.21-95.35-36.63c-24.28-24.41-36.42-56.28-36.42-95.6c0-22,3.92-42.68,11.77-62.03
		c7.85-19.35,19-36,33.45-49.98c13.71-13.1,29.74-23.15,48.09-30.13C477.2,30.46,496.75,26.96,517.5,26.96z M620.34,159.19
		c0-30.78-9.61-55.7-28.81-74.73c-19.21-19.04-44.44-28.56-75.69-28.56c-15.57,0-30.29,2.85-44.19,8.53
		c-13.9,5.69-26.1,13.85-36.59,24.48c-11.98,12.12-21.15,25.96-27.52,41.54s-9.54,31.83-9.54,48.77c0,30.91,9.42,55.79,28.26,74.64
		c18.84,18.85,43.7,28.28,74.58,28.28c15.94,0,31.01-2.84,45.21-8.53c14.2-5.68,26.8-13.97,37.8-24.85
		c11.49-11.5,20.44-25.1,26.87-40.8C617.13,192.26,620.34,176,620.34,159.19z"/>
	<polygon class="st0" points="299.89,33.08 273,234.66 111.11,22.33 79.42,268.37 107.03,304.58 133.92,104.85 295.07,315.15 
		327.43,69.02 	"/>
</g>
<g>
	<path class="st0" d="M95.34,711.38c-4.37-3.94-8.73-6.85-13.09-8.74c-4.37-1.89-8.9-2.83-13.6-2.83c-5.13,0-9.94,0.93-14.43,2.8
		c-4.49,1.86-8.41,4.58-11.76,8.14c-3.86,4.07-6.79,8.71-8.8,13.92c-2.01,5.21-3.02,10.72-3.02,16.53c0,11.14,3.07,19.96,9.22,26.44
		c6.14,6.48,14.51,9.72,25.11,9.72c4.11,0,8.21-0.7,12.3-2.1c4.09-1.4,8.42-3.6,13-6.61l-2.48,13.03
		c-3.73,1.95-7.64,3.41-11.73,4.39c-4.09,0.97-8.38,1.46-12.87,1.46c-13.09,0-23.73-4.23-31.91-12.68
		C23.09,766.39,19,755.43,19,741.95c0-7.46,1.32-14.48,3.97-21.07c2.65-6.59,6.45-12.36,11.41-17.32
		c4.45-4.45,9.58-7.84,15.38-10.17c5.8-2.33,12.05-3.5,18.75-3.5c5.76,0,11.09,0.84,15.99,2.51c4.89,1.67,9.5,4.27,13.82,7.79
		L95.34,711.38z"/>
	<path class="st0" d="M223.63,689.9c14.02,0,25.24,4.12,33.67,12.36c8.43,8.24,12.64,19.23,12.64,32.96
		c0,7.37-1.38,14.33-4.13,20.88c-2.75,6.55-6.67,12.26-11.75,17.13c-4.78,4.58-10.4,8.1-16.83,10.58
		c-6.44,2.48-13.28,3.72-20.52,3.72c-13.47,0-24.36-4.18-32.68-12.55c-8.32-8.37-12.48-19.29-12.48-32.77
		c0-7.54,1.34-14.63,4.03-21.26c2.69-6.63,6.51-12.34,11.47-17.13c4.7-4.49,10.2-7.93,16.48-10.33
		C209.82,691.1,216.52,689.9,223.63,689.9z M258.88,735.22c0-10.55-3.29-19.09-9.88-25.62c-6.58-6.53-15.23-9.79-25.94-9.79
		c-5.33,0-10.38,0.97-15.15,2.92c-4.76,1.95-8.94,4.75-12.54,8.39c-4.11,4.15-7.25,8.9-9.43,14.24c-2.18,5.34-3.27,10.91-3.27,16.72
		c0,10.59,3.23,19.12,9.69,25.58c6.46,6.46,14.98,9.69,25.56,9.69c5.46,0,10.63-0.97,15.49-2.92c4.87-1.95,9.19-4.79,12.96-8.52
		c3.94-3.94,7.01-8.6,9.21-13.98C257.78,746.55,258.88,740.98,258.88,735.22z"/>
	<path class="st0" d="M340.43,785.05l28.73-96.74l26.44,76.59l44.62-76.59l4.45,96.74h-11.06l-1.46-64.45l-39.79,68.07l-22.82-68.2
		L352,785.05H340.43z"/>
	<path class="st0" d="M524.25,785.05l12.2-93.05h15c8.3,0,14.15,0.42,17.54,1.27c3.39,0.85,6.36,2.29,8.9,4.32
		c2.71,2.16,4.78,4.84,6.2,8.04c1.42,3.2,2.13,6.77,2.13,10.71c0,4.7-0.85,8.91-2.54,12.62c-1.7,3.71-4.2,6.83-7.5,9.38
		c-2.67,2.08-5.86,3.57-9.57,4.48c-3.71,0.91-9.59,1.37-17.64,1.37h-4.32h-4l-5.34,40.87H524.25z M541.91,734.39h7.56
		c4.75,0,8.27-0.17,10.58-0.51c2.31-0.34,4.29-0.89,5.94-1.65c2.84-1.31,5.02-3.33,6.55-6.04c1.53-2.71,2.29-5.87,2.29-9.47
		c0-2.75-0.52-5.17-1.56-7.25c-1.04-2.08-2.6-3.75-4.67-5.02c-1.4-0.89-3.07-1.53-5.02-1.91c-1.95-0.38-5-0.57-9.15-0.57h-3.37h-4.7
		L541.91,734.39z"/>
	<path class="st0" d="M637.51,785.05l54.79-96.74l29.81,96.74h-12.39l-6.23-23.45h-40.62l-12.65,23.45H637.51z M667.83,752h33.18
		l-11.19-37.12L667.83,752z"/>
	<path class="st0" d="M795.14,785.05l12.46-96.74l55.49,72.78L872.3,692h11.06l-12.71,96.68l-55.23-72.08l-9.22,68.46H795.14z"/>
	<path class="st0" d="M974.76,785.05l5.34-40.62L955.12,692h11.95l19.26,42.14l26.7-42.14h12.65l-34.39,52.56l-5.34,40.49H974.76z"
		/>
</g>
</svg>
